<svg xmlns="http://www.w3.org/2000/svg" width="456" zoomAndPan="magnify" viewBox="0 0 342 115.499997" height="154"
     preserveAspectRatio="xMidYMid meet" version="1.0">
    <defs>
        <g/>
        <clipPath id="1d0854c8f0">
            <path d="M 0.929688 33.488281 L 36 33.488281 L 36 82.027344 L 0.929688 82.027344 Z M 0.929688 33.488281 "
                  clip-rule="nonzero"/>
        </clipPath>
        <clipPath id="9a8b00e485">
            <path d="M 26 33.488281 L 74.859375 33.488281 L 74.859375 82.027344 L 26 82.027344 Z M 26 33.488281 "
                  clip-rule="nonzero"/>
        </clipPath>
    </defs>
    <g fill="#010817" fill-opacity="1">
        <g transform="translate(83.812073, 71.614973)">
            <g>
                <path d="M 21.738281 0.84375 C 32.980469 0.84375 41.367188 -7.441406 41.367188 -18.46875 C 41.367188 -29.445312 32.980469 -37.726562 21.738281 -37.726562 C 10.449219 -37.726562 2.003906 -29.390625 2.003906 -18.46875 C 2.003906 -7.492188 10.449219 0.84375 21.738281 0.84375 Z M 21.738281 -6.703125 C 15.144531 -6.703125 10.132812 -11.820312 10.132812 -18.46875 C 10.132812 -25.117188 15.144531 -30.183594 21.738281 -30.183594 C 28.335938 -30.183594 33.242188 -25.167969 33.242188 -18.46875 C 33.242188 -11.765625 28.335938 -6.703125 21.738281 -6.703125 Z M 21.738281 -6.703125 "/>
            </g>
        </g>
    </g>
    <g fill="#010817" fill-opacity="1">
        <g transform="translate(124.598103, 71.614973)">
            <g>
                <path d="M 19.894531 -29.128906 C 16.042969 -29.128906 12.609375 -27.492188 10.449219 -24.957031 L 8.96875 -28.492188 L 3.695312 -28.492188 L 3.695312 0 L 11.398438 0 L 11.398438 -14.933594 C 11.398438 -19.523438 13.824219 -22.371094 17.78125 -22.371094 C 21.105469 -22.371094 22.742188 -20.316406 22.742188 -15.988281 L 22.742188 0 L 30.445312 0 L 30.445312 -17.253906 C 30.445312 -24.484375 26.382812 -29.128906 19.894531 -29.128906 Z M 19.894531 -29.128906 "/>
            </g>
        </g>
    </g>
    <g fill="#010817" fill-opacity="1">
        <g transform="translate(155.781129, 71.614973)">
            <g>
                <path d="M 16.464844 0.738281 C 24.113281 0.738281 30.445312 -3.113281 30.445312 -11.082031 C 30.445312 -19.367188 23.375 -21.105469 17.78125 -22.53125 C 13.824219 -23.480469 10.660156 -24.273438 10.660156 -26.859375 C 10.660156 -29.285156 13.246094 -30.394531 15.828125 -30.394531 C 18.835938 -30.394531 21.476562 -28.917969 21.476562 -25.699219 L 29.339844 -25.699219 C 29.339844 -33.085938 24.535156 -37.621094 16.042969 -37.621094 C 7.863281 -37.621094 2.636719 -33.613281 2.636719 -26.542969 C 2.636719 -18.574219 9.390625 -16.9375 14.984375 -15.566406 C 18.996094 -14.667969 22.371094 -13.878906 22.371094 -10.976562 C 22.371094 -8.230469 19.417969 -6.648438 16.410156 -6.648438 C 13.140625 -6.648438 10.183594 -8.390625 10.183594 -11.925781 L 2.109375 -11.925781 C 2.109375 -4.011719 7.96875 0.738281 16.464844 0.738281 Z M 16.464844 0.738281 "/>
            </g>
        </g>
    </g>
    <g fill="#010817" fill-opacity="1">
        <g transform="translate(185.80335, 71.614973)">
            <g>
                <path d="M 19.207031 -29.285156 C 15.671875 -29.285156 12.503906 -28.019531 10.078125 -25.855469 L 8.757812 -28.492188 L 3.695312 -28.492188 L 3.695312 10.289062 L 11.398438 10.289062 L 11.398438 -1.53125 C 13.5625 0 16.253906 0.898438 19.207031 0.898438 C 27.808594 0.898438 34.140625 -5.59375 34.140625 -14.246094 C 34.140625 -22.847656 27.808594 -29.285156 19.207031 -29.285156 Z M 18.574219 -6.4375 C 14.089844 -6.4375 10.816406 -9.761719 10.816406 -14.246094 C 10.816406 -18.679688 14.089844 -22.054688 18.574219 -22.054688 C 23.058594 -22.054688 26.332031 -18.679688 26.332031 -14.246094 C 26.332031 -9.761719 23.058594 -6.4375 18.574219 -6.4375 Z M 18.574219 -6.4375 "/>
            </g>
        </g>
    </g>
    <g fill="#010817" fill-opacity="1">
        <g transform="translate(219.149679, 71.614973)">
            <g>
                <path d="M 18.257812 -28.652344 C 14.5625 -28.652344 12.03125 -27.492188 9.972656 -24.957031 L 8.601562 -28.492188 L 3.695312 -28.492188 L 3.695312 0 L 11.398438 0 L 11.398438 -14.773438 C 11.398438 -19.417969 13.085938 -21.371094 17.414062 -21.371094 L 20.789062 -21.371094 L 20.789062 -28.652344 Z M 18.257812 -28.652344 "/>
            </g>
        </g>
    </g>
    <g fill="#010817" fill-opacity="1">
        <g transform="translate(237.985963, 71.614973)">
            <g>
                <path d="M 3.695312 -32.292969 L 11.34375 -32.292969 L 11.34375 -39.417969 L 3.695312 -39.417969 Z M 3.695312 0 L 11.398438 0 L 11.398438 -28.492188 L 3.695312 -28.492188 Z M 3.695312 0 "/>
            </g>
        </g>
    </g>
    <g fill="#010817" fill-opacity="1">
        <g transform="translate(250.437829, 71.614973)">
            <g>
                <path d="M 19.894531 -29.128906 C 16.042969 -29.128906 12.609375 -27.492188 10.449219 -24.957031 L 8.96875 -28.492188 L 3.695312 -28.492188 L 3.695312 0 L 11.398438 0 L 11.398438 -14.933594 C 11.398438 -19.523438 13.824219 -22.371094 17.78125 -22.371094 C 21.105469 -22.371094 22.742188 -20.316406 22.742188 -15.988281 L 22.742188 0 L 30.445312 0 L 30.445312 -17.253906 C 30.445312 -24.484375 26.382812 -29.128906 19.894531 -29.128906 Z M 19.894531 -29.128906 "/>
            </g>
        </g>
    </g>
    <g fill="#010817" fill-opacity="1">
        <g transform="translate(281.620852, 71.614973)">
            <g>
                <path d="M 17.625 -6.859375 C 14.773438 -6.859375 13.191406 -8.441406 13.191406 -11.1875 L 13.191406 -22.265625 L 20.949219 -22.265625 L 20.949219 -28.492188 L 13.085938 -28.492188 L 13.085938 -35.882812 L 11.609375 -35.882812 L 0.371094 -23.957031 L 0.371094 -22.265625 L 5.488281 -22.265625 L 5.488281 -10.132812 C 5.488281 -3.851562 9.339844 0 15.617188 0 L 21.105469 0 L 21.105469 -6.859375 Z M 17.625 -6.859375 "/>
            </g>
        </g>
    </g>
    <g fill="#010817" fill-opacity="1">
        <g transform="translate(301.670712, 71.614973)">
            <g>
                <path d="M 3.113281 0 L 11.292969 0 L 11.292969 -8.230469 L 3.113281 -8.230469 Z M 3.113281 0 "/>
            </g>
        </g>
    </g>
    <g fill="#010817" fill-opacity="1">
        <g transform="translate(313.489656, 71.614973)">
            <g/>
        </g>
    </g>
    <g clip-path="url(#1d0854c8f0)">
        <path fill="#010817"
              d="M 20.449219 57.757812 L 35.019531 72.292969 L 25.261719 82.023438 L 0.929688 57.757812 L 25.261719 33.492188 L 35.019531 43.222656 Z M 20.449219 57.757812 "
              fill-opacity="1" fill-rule="nonzero"/>
    </g>
    <g clip-path="url(#9a8b00e485)">
        <path fill="#1144ff"
              d="M 74.859375 57.757812 L 50.53125 82.023438 L 37.894531 69.421875 L 26.199219 57.757812 L 37.894531 46.089844 L 50.53125 33.492188 Z M 74.859375 57.757812 "
              fill-opacity="1" fill-rule="nonzero"/>
    </g>
    <g fill="#010819" fill-opacity="1">
        <g transform="translate(252.283267, 92.399999)">
            <g>
                <path d="M 4.625 -4.359375 L 4.625 -2.976562 L 7.132812 -2.976562 C 6.824219 -2.113281 5.878906 -1.542969 4.804688 -1.542969 C 3.296875 -1.542969 2.304688 -2.617188 2.304688 -4.171875 C 2.304688 -5.734375 3.320312 -6.808594 4.804688 -6.808594 C 5.855469 -6.808594 6.738281 -6.25 7.097656 -5.351562 L 8.960938 -5.351562 C 8.566406 -7.230469 6.847656 -8.542969 4.765625 -8.542969 C 2.292969 -8.542969 0.464844 -6.667969 0.464844 -4.171875 C 0.464844 -1.660156 2.34375 0.191406 4.804688 0.191406 C 7.3125 0.191406 9.070312 -1.746094 9.070312 -4.359375 Z M 4.625 -4.359375 "/>
            </g>
        </g>
    </g>
    <g fill="#010819" fill-opacity="1">
        <g transform="translate(262.056978, 92.399999)">
            <g>
                <path d="M 2.761719 -1.671875 L 2.761719 -8.363281 L 0.957031 -8.363281 L 0.957031 0 L 5.972656 0 L 5.972656 -1.671875 Z M 2.761719 -1.671875 "/>
            </g>
        </g>
    </g>
    <g fill="#010819" fill-opacity="1">
        <g transform="translate(268.544907, 92.399999)">
            <g>
                <path d="M 4.921875 0.191406 C 7.46875 0.191406 9.367188 -1.683594 9.367188 -4.183594 C 9.367188 -6.667969 7.46875 -8.542969 4.921875 -8.542969 C 2.367188 -8.542969 0.453125 -6.65625 0.453125 -4.183594 C 0.453125 -1.695312 2.367188 0.191406 4.921875 0.191406 Z M 4.921875 -1.515625 C 3.429688 -1.515625 2.292969 -2.675781 2.292969 -4.183594 C 2.292969 -5.6875 3.429688 -6.835938 4.921875 -6.835938 C 6.417969 -6.835938 7.527344 -5.699219 7.527344 -4.183594 C 7.527344 -2.664062 6.417969 -1.515625 4.921875 -1.515625 Z M 4.921875 -1.515625 "/>
            </g>
        </g>
    </g>
    <g fill="#010819" fill-opacity="1">
        <g transform="translate(278.629275, 92.399999)">
            <g>
                <path d="M 5.984375 -4.410156 C 6.570312 -4.816406 6.929688 -5.484375 6.929688 -6.199219 C 6.929688 -7.433594 5.855469 -8.351562 4.410156 -8.351562 L 0.957031 -8.351562 L 0.957031 0.0117188 L 4.503906 0.0117188 C 5.960938 0.0117188 7.144531 -1.0625 7.144531 -2.402344 C 7.144531 -3.296875 6.714844 -4.015625 5.984375 -4.410156 Z M 5.171875 -5.925781 C 5.171875 -5.402344 4.804688 -5.03125 4.242188 -5.03125 L 2.722656 -5.03125 L 2.722656 -6.808594 L 4.242188 -6.808594 C 4.804688 -6.808594 5.171875 -6.453125 5.171875 -5.925781 Z M 4.335938 -1.648438 L 2.722656 -1.648438 L 2.722656 -3.523438 L 4.335938 -3.523438 C 4.933594 -3.523438 5.328125 -3.128906 5.328125 -2.59375 C 5.328125 -2.042969 4.933594 -1.648438 4.335938 -1.648438 Z M 4.335938 -1.648438 "/>
            </g>
        </g>
    </g>
    <g fill="#010819" fill-opacity="1">
        <g transform="translate(286.550994, 92.399999)">
            <g>
                <path d="M 6.5 0 L 8.472656 0 L 5.089844 -8.363281 L 3.382812 -8.363281 L 0.09375 0 L 2.019531 0 L 2.59375 -1.578125 L 5.914062 -1.578125 Z M 4.253906 -6.152344 L 5.351562 -3.15625 L 3.15625 -3.15625 Z M 4.253906 -6.152344 "/>
            </g>
        </g>
    </g>
    <g fill="#010819" fill-opacity="1">
        <g transform="translate(295.380784, 92.399999)">
            <g>
                <path d="M 2.761719 -1.671875 L 2.761719 -8.363281 L 0.957031 -8.363281 L 0.957031 0 L 5.972656 0 L 5.972656 -1.671875 Z M 2.761719 -1.671875 "/>
            </g>
        </g>
    </g>
</svg>