<svg width="470" height="350" viewBox="0 0 470 350" fill="none" xmlns="http://www.w3.org/2000/svg">
    <path d="M335.616 103.568H96.0232C85.9151 103.568 77.7213 111.411 77.7213 121.087V305.839C77.7213 315.515 85.9151 323.358 96.0232 323.358H335.616C345.724 323.358 353.918 315.515 353.918 305.839V121.087C353.918 111.413 345.724 103.568 335.616 103.568Z"
          fill="white" stroke="#212121"/>
    <path d="M77.7213 257.421H353.918M77.7213 290.389H353.918M112.246 257.421V323.358M146.77 257.421V323.358M181.295 257.421V323.358M215.82 257.421V323.358M250.344 257.421V323.358M284.869 257.421V323.358M319.393 257.421V323.358"
          stroke="#212121"/>
    <path d="M284.869 297.716C286.904 297.716 288.855 296.944 290.294 295.57C291.733 294.196 292.541 292.332 292.541 290.389C292.541 288.446 291.733 286.583 290.294 285.209C288.855 283.835 286.904 283.063 284.869 283.063C282.834 283.063 280.883 283.835 279.444 285.209C278.005 286.583 277.197 288.446 277.197 290.389C277.197 292.332 278.005 294.196 279.444 295.57C280.883 296.944 282.834 297.716 284.869 297.716Z"
          fill="#3FC4FF" stroke="#212121"/>
    <path d="M215.82 297.716C217.854 297.716 219.806 296.944 221.245 295.57C222.684 294.196 223.492 292.332 223.492 290.389C223.492 288.446 222.684 286.583 221.245 285.209C219.806 283.835 217.854 283.063 215.82 283.063C213.785 283.063 211.833 283.835 210.395 285.209C208.956 286.583 208.148 288.446 208.148 290.389C208.148 292.332 208.956 294.196 210.395 295.57C211.833 296.944 213.785 297.716 215.82 297.716Z"
          fill="#2979FF" stroke="#212121"/>
    <path fill-rule="evenodd" clip-rule="evenodd"
          d="M96.0193 103.568H335.62C340.469 103.565 345.12 105.153 348.551 107.983C351.983 110.81 353.912 114.649 353.916 118.651V140.2H77.7213V118.651C77.7213 116.67 78.197 114.708 79.1176 112.876C80.0383 111.045 81.3867 109.382 83.086 107.983C84.8365 106.553 86.8484 105.445 89.0204 104.713C91.2668 103.951 93.6356 103.564 96.0193 103.568Z"
          fill="#F5F5F5" stroke="#212121"/>
    <path d="M116.082 127.379C117.608 127.379 119.072 126.8 120.151 125.77C121.23 124.739 121.836 123.342 121.836 121.884C121.836 120.427 121.23 119.029 120.151 117.999C119.072 116.969 117.608 116.39 116.082 116.39C114.556 116.39 113.092 116.969 112.013 117.999C110.934 119.029 110.328 120.427 110.328 121.884C110.328 123.342 110.934 124.739 112.013 125.77C113.092 126.8 114.556 127.379 116.082 127.379Z"
          fill="#2979FF"/>
    <path d="M94.9836 127.379C96.5097 127.379 97.9733 126.8 99.0524 125.77C100.131 124.739 100.738 123.342 100.738 121.884C100.738 120.427 100.131 119.029 99.0524 117.999C97.9733 116.969 96.5097 116.39 94.9836 116.39C93.4575 116.39 91.9939 116.969 90.9148 117.999C89.8357 119.029 89.2295 120.427 89.2295 121.884C89.2295 123.342 89.8357 124.739 90.9148 125.77C91.9939 126.8 93.4575 127.379 94.9836 127.379Z"
          fill="#3740FF"/>
    <path d="M137.18 127.379C138.706 127.379 140.17 126.8 141.249 125.77C142.328 124.739 142.934 123.342 142.934 121.884C142.934 120.427 142.328 119.029 141.249 117.999C140.17 116.969 138.706 116.39 137.18 116.39C135.654 116.39 134.191 116.969 133.112 117.999C132.032 119.029 131.426 120.427 131.426 121.884C131.426 123.342 132.032 124.739 133.112 125.77C134.191 126.8 135.654 127.379 137.18 127.379Z"
          fill="#3FC4FF"/>
    <path d="M123.754 195.605H151.97L165.702 173.168L178.673 224.453L195.316 198.811L210.896 224.453L225.412 173.168L246 224.453L267.889 173.168L280.799 195.605H307.885"
          stroke="#3FC4FF" stroke-width="6" stroke-linecap="round" stroke-linejoin="round"/>
    <path d="M215.82 81.5895C239.124 81.5895 258.016 63.5484 258.016 41.2947C258.016 19.0411 239.124 1 215.82 1C192.516 1 173.623 19.0411 173.623 41.2947C173.623 63.5484 192.516 81.5895 215.82 81.5895Z"
          fill="white" stroke="#212121" stroke-width="1.275"/>
    <path fill-rule="evenodd" clip-rule="evenodd"
          d="M192.803 23.8949C192.803 22.6805 193.308 21.5158 194.208 20.6571C195.107 19.7983 196.327 19.3159 197.598 19.3159H234.041C235.313 19.3159 236.532 19.7983 237.432 20.6571C238.331 21.5158 238.836 22.6805 238.836 23.8949C238.836 25.1093 238.331 26.274 237.432 27.1327C236.532 27.9914 235.313 28.4738 234.041 28.4738H197.598C196.327 28.4738 195.107 27.9914 194.208 27.1327C193.308 26.274 192.803 25.1093 192.803 23.8949ZM192.803 41.2949C192.803 40.0805 193.308 38.9158 194.208 38.0571C195.107 37.1983 196.327 36.7159 197.598 36.7159H234.041C235.313 36.7159 236.532 37.1983 237.432 38.0571C238.331 38.9158 238.836 40.0805 238.836 41.2949C238.836 42.5093 238.331 43.674 237.432 44.5327C236.532 45.3914 235.313 45.8738 234.041 45.8738H197.598C196.327 45.8738 195.107 45.3914 194.208 44.5327C193.308 43.674 192.803 42.5093 192.803 41.2949ZM197.598 54.1159C196.327 54.1159 195.107 54.5983 194.208 55.4571C193.308 56.3158 192.803 57.4804 192.803 58.6949C192.803 59.9093 193.308 61.074 194.208 61.9327C195.107 62.7914 196.327 63.2738 197.598 63.2738H234.041C235.313 63.2738 236.532 62.7914 237.432 61.9327C238.331 61.074 238.836 59.9093 238.836 58.6949C238.836 57.4804 238.331 56.3158 237.432 55.4571C236.532 54.5983 235.313 54.1159 234.041 54.1159H197.598Z"
          fill="#DADCE0"/>
    <path d="M192.803 23.8949C192.803 22.6805 193.308 21.5158 194.208 20.6571C195.107 19.7983 196.327 19.3159 197.598 19.3159H223.492V28.4738H197.598C196.327 28.4738 195.107 27.9914 194.208 27.1327C193.308 26.274 192.803 25.1093 192.803 23.8949Z"
          fill="#0CCE6B"/>
    <path d="M192.803 41.2948C192.803 40.0804 193.308 38.9157 194.208 38.057C195.107 37.1982 196.327 36.7158 197.598 36.7158H215.82V45.8737H197.598C196.327 45.8737 195.107 45.3913 194.208 44.5326C193.308 43.6739 192.803 42.5092 192.803 41.2948Z"
          fill="#FFA400"/>
    <path d="M192.803 58.6947C192.803 57.4803 193.308 56.3156 194.208 55.4569C195.107 54.5981 196.327 54.1157 197.598 54.1157H208.147V63.2736H197.598C196.327 63.2736 195.107 62.7912 194.208 61.9325C193.308 61.0738 192.803 59.9091 192.803 58.6947Z"
          fill="#FF4E42"/>
    <path d="M215.82 103.568V81.5894M353.918 198.81H384.607" stroke="#212121" stroke-width="1.275"
          stroke-dasharray="3.19 3.19"/>
    <path d="M426.803 239.105C450.107 239.105 469 221.064 469 198.81C469 176.557 450.107 158.516 426.803 158.516C403.499 158.516 384.607 176.557 384.607 198.81C384.607 221.064 403.499 239.105 426.803 239.105Z"
          fill="white" stroke="#212121" stroke-width="1.275"/>
    <path d="M426.803 206.137C428.838 206.137 430.789 205.365 432.228 203.991C433.667 202.617 434.475 200.754 434.475 198.811C434.475 196.868 433.667 195.004 432.228 193.63C430.789 192.256 428.838 191.484 426.803 191.484C424.768 191.484 422.817 192.256 421.378 193.63C419.939 195.004 419.131 196.868 419.131 198.811C419.131 200.754 419.939 202.617 421.378 203.991C422.817 205.365 424.768 206.137 426.803 206.137Z"
          fill="#FF4E42"/>
    <path d="M384.607 198.81H395.156M426.803 158.516V168.589M469 198.81H458.451M396.915 170.269L403.946 176.983M456.692 170.269L449.66 176.983"
          stroke="#212121"/>
    <path d="M426.803 198.81L455.574 185.989" stroke="#FF4E42"/>
    <path d="M62.377 349C96.2744 349 123.754 322.759 123.754 290.389C123.754 258.02 96.2744 231.779 62.377 231.779C28.4797 231.779 1 258.02 1 290.389C1 322.759 28.4797 349 62.377 349Z"
          fill="white" stroke="#212121" stroke-width="1.275"/>
    <path d="M25.9344 289.516L46.6396 275.742L59.7014 284.534L87.3115 267.537" stroke="#212121" stroke-width="1.275"
          stroke-linecap="round" stroke-linejoin="round"/>
    <path fill-rule="evenodd" clip-rule="evenodd" d="M95.0277 263.244L87.0487 276.134L79.3804 264.189L95.0277 263.244Z"
          fill="#212121"/>
    <path d="M60.459 297.716H68.1311V319.695H60.459V297.716Z" fill="#3FC4FF"/>
    <path d="M71.9672 290.39H79.6393V319.695H71.9672V290.39Z" fill="#2979FF"/>
    <path d="M83.4755 283.063H91.1476V319.695H83.4755V283.063Z" fill="#3740FF"/>
    <path d="M41.2787 319.695C47.6345 319.695 52.7869 314.775 52.7869 308.705C52.7869 302.636 47.6345 297.716 41.2787 297.716C34.9229 297.716 29.7705 302.636 29.7705 308.705C29.7705 314.775 34.9229 319.695 41.2787 319.695Z"
          fill="#DADCE0"/>
    <path d="M41.2787 319.695C38.2265 319.695 35.2994 318.537 33.1412 316.476C30.983 314.415 29.7705 311.62 29.7705 308.705C29.7705 305.791 30.983 302.995 33.1412 300.935C35.2994 298.874 38.2265 297.716 41.2787 297.716V319.695Z"
          fill="#0CCE6B"/>
    <path d="M41.2787 297.716C43.0948 297.715 44.8851 298.126 46.5033 298.913C48.1215 299.7 49.5215 300.842 50.5888 302.245L41.2787 308.705V297.716Z"
          fill="#018642"/>
</svg>
